<svg xmlns="http://www.w3.org/2000/svg" version="1.1" xmlns:xlink="http://www.w3.org/1999/xlink" xmlns:svgjs="http://svgjs.dev/svgjs" width="1500" height="1500" viewBox="0 0 1500 1500"><rect width="1500" height="1500" fill="#000000"></rect><g transform="matrix(0.6666666666666666,0,0,0.6666666666666666,248.44244080996884,189.33333333333348)"><svg viewBox="0 0 321 360" data-background-color="#333b6a" preserveAspectRatio="xMidYMid meet" height="1682" width="1500" xmlns="http://www.w3.org/2000/svg" xmlns:xlink="http://www.w3.org/1999/xlink"><g id="tight-bounds" transform="matrix(1,0,0,1,0.5000234999999975,0)"><svg viewBox="0 0 320 360" height="360" width="320"><g><svg></svg></g><g><svg viewBox="0 0 320 360" height="360" width="320"><g><path transform="translate(-74.99272,-51.79039) scale(4.65793,4.65793)" d="M20.6 59.9l0.8 1-0.4-1.3c-0.1-0.6-0.8 0.1-0.4 0.3M21.5 59.3c0.3 0.5 0.6 1 0.6 1.5 0 0.7 0.6 1 1.1 1.2-0.7-0.8-1.1-3-1.7-2.7M59.9 16.9c1.7 0 3.3-0.2 5.1 0.2 4.4 1.1 8.1 3.3 10.6 6.4l7 11.2c0.3 2.8 0.9 5.9 0.8 9.3 0.7 0 0.6-1 1.4-1.2-0.8 2-1.2 4.5-1.4 7.4-0.5-1.6 0-4 0.1-5.3-0.7 1.1-1.1 0.3-1.1-0.2 0.1-0.8-0.3-0.7-0.6-1-1.1-1-1.8-2.1-2.6-3.8 0.5-1.3 0.6-3.2-1-4.2-0.5-0.3-1.1-0.8-1.4-1.6-0.4-1.1-1.1-2.4-0.9-4.1 0.1-0.5-1.5 1.1-2.4 0.4-3.9-2.7-7.8-5.8-12.5-8.4-2.5 0-4.3-0.9-5.2-2-0.8-1-0.2-2.3 1-2.4 0.7 0 1.5-0.2 2.1 0.2 0.1-0.4 0.5-0.9 1-0.9M50 14.6l0.2 0.1c1 0.2 1.5 1.6 2.6 1.1 0 0.7 0.1 1.4-0.1 1.9-0.3 0.8-1.2 0.8-1.9 0.8-6.7-0.4-10.6 2.4-14.7 4.8-1.1 0.7-2.3 1.2-3.2 2.1-4.3 4-9 7.7-10.1 15.1l-0.9 8.2c-0.1 0.9-1.1 1.8-0.9 2.9l0.7 4.9c-0.7-0.7-1.1 0.2-0.9 0.6 0.1 0.3 0.5 1.3 1.1 0.4 0.8 1.5 1.6 4.4 2.7 5.7 3.4 4 7.8 7.6 11.4 11.2 0.9-0.2 1.6-0.2 1.8-0.8 0.3 0.6-0.3 1.2-0.8 1.3 1.6 1 3.4 1.9 5.8 2.1 3.1 0.2 6 0.7 8.7 1.4 1.4-0.4 2.8-0.6 4.3-0.7 0.5 0 0.8-0.8 1.4-1l0.1-1c0.6 0.9 0.5-0.3 0.1-0.9 0.7 0.6 0.9 1.1 1.2 1.5 0-0.3 0.8-1.4 0.8-0.1l0.2-1.3c0.3-0.2 0.4 1.1 0.7 0.2 0.3-0.9 0.9-0.2 1.5-0.5-0.2 0.4-0.1 1.2 0.6 0.7l0.8-0.7c0.5 1.2 1.3 0.7 1.7 0.5 4.4-2.8 8.8-6.1 13-9.4l-0.1 1.3 0.5-1.6c0.5 0.5 0.9 0.1 1.1-0.2 0.6-1 1.4-2 2.7-2.9-1.6 4.3-3.5 7.7-5.9 10.5l-1 1.2c0 0.7-0.2 1.6-1 1.7-0.4 0.1-1.2-0.2-1.8 0.4-0.3 0.4 0.7 1.2-0.1 0.6-0.7-0.5-1.4 0-2.2 0.2-0.6 0.2 0.4 0.8 0.6 1.2 0.2 0.4 0.4 0.8 0.3 1.3l-1.1-1.2c-1.3 0.7-2.1 2-3.2 3-0.5 0.4-0.3 1.1-0.3 1.7-0.7 0-1.5-0.2-1.9 0.2-0.3 0.4-0.2 1-0.2 1.6-1-0.1-1.1-1.6-2-1.3-0.9 0.2-1.9 0.3-2.7 0.8 0.6 1.2-1 0.5-0.8 0.7-1.5-0.9-2.8-1.6-4.4-1-3.4-1.1-7.6-0.6-10.7-0.2 0-0.5 0.1-1-0.1-1.1-0.2 0.5-0.8 0.3-0.7 0.3-1.9-1.3-3.8-2.1-5.8-3.2-1.8 0.2-3.5-0.7-4-1.2-1.4-1.3-3-0.6-4.3-0.9-2.8-0.7-3.8-3.6-4.1-5.6-0.2-1-1-1.4-1.3-1.3-1.3-4.2-3.3-8-4.9-11.9-0.4-1-0.3-2-0.3-3.1 0.5 0.2 1 0.1 0.9-0.6-0.5-3.3-1.7-5.8-3-8.2 0.7-3.4 0.8-7.4 2.4-10.4 1.4-2.7 4-4.1 5.8-6.4 0.6-0.8 0.6-1.9 1.2-2.6 2-2 4-4.1 6.2-5.9 1-0.8 2.2 0 3.7-0.3 0.5-1.8 2.5-3.4 4.4-2.9 0.8 0.2 2.4-1.9 2.9-2.1 0.8-0.3 0.4 0.8 0.4 1.5 1.9-1.5 4.5-2.3 6.9-3.2" fill="#ffffff" fill-rule="nonzero" stroke="none" stroke-width="1" stroke-linecap="butt" stroke-linejoin="miter" stroke-miterlimit="10" stroke-dasharray="" stroke-dashoffset="0" font-family="none" font-weight="none" font-size="none" text-anchor="none" style="mix-blend-mode: normal" data-fill-palette-color="tertiary"></path></g><g transform="matrix(1,0,0,1,64,159.86097664404105)"><svg viewBox="0 0 192 40.278046711917916" height="40.278046711917916" width="192"><g><svg viewBox="0 0 192 40.278046711917916" height="40.278046711917916" width="192"><g><svg viewBox="0 0 192 40.278046711917916" height="40.278046711917916" width="192"><g transform="matrix(1,0,0,1,0,24.344796063592288)"><svg viewBox="0 0 192 15.933250648325627" height="15.933250648325627" width="192"><g id="textblocktransform"><svg viewBox="0 0 192 15.933250648325627" height="15.933250648325627" width="192" id="textblock"><g><svg viewBox="0 0 192 15.933250648325627" height="15.933250648325627" width="192"><g transform="matrix(1,0,0,1,0,0)"><svg width="192" viewBox="3.0999999999999996 -36.25 443.40999999999997 36.8" height="15.933250648325627" data-palette-color="#b7feae"><path d="M19.5 0.55L19.5 0.55Q14.4 0.55 10.73-1.8 7.05-4.15 5.08-8.28 3.1-12.4 3.1-17.75L3.1-17.75Q3.1-21.75 4.4-25.1 5.7-28.45 8-30.95 10.3-33.45 13.33-34.83 16.35-36.2 19.8-36.2L19.8-36.2Q22.85-36.2 24.83-35.52 26.8-34.85 27.8-34.35L27.8-34.35Q28.45-34.05 29-33.83 29.55-33.6 29.75-33.6L29.75-33.6Q30.3-33.6 30.65-34.02 31-34.45 31.1-35.5L31.1-35.5 32.35-35.5 32.25-29.65 32.35-23.8 31.1-23.8Q30.35-29 27.5-31.85 24.65-34.7 19.95-34.7L19.95-34.7Q16.65-34.7 14.4-33.38 12.15-32.05 10.8-29.73 9.45-27.4 8.83-24.33 8.2-21.25 8.2-17.75L8.2-17.75Q8.2-12.5 9.33-8.75 10.45-5 13.03-2.98 15.6-0.95 19.95-0.95L19.95-0.95Q23.2-0.95 25.6-2.45 28-3.95 29.48-6.45 30.95-8.95 31.25-11.95L31.25-11.95 32.45-11.95 32.35-5.85 32.5 0 31.3 0 31.15-0.55Q30.95-1.2 30.68-1.78 30.4-2.35 29.75-2.35L29.75-2.35Q29.4-2.35 28.93-2.15 28.45-1.95 27.85-1.65L27.85-1.65Q26.55-1 24.45-0.23 22.35 0.55 19.5 0.55ZM49.75 0.55L49.75 0.55Q46.55 0.55 43.92-1 41.3-2.55 39.77-5.18 38.25-7.8 38.25-11L38.25-11Q38.25-14.3 39.77-16.95 41.3-19.6 43.92-21.15 46.55-22.7 49.75-22.7L49.75-22.7Q53-22.7 55.6-21.15 58.2-19.6 59.72-16.95 61.25-14.3 61.25-11L61.25-11Q61.25-7.8 59.72-5.18 58.2-2.55 55.6-1 53 0.55 49.75 0.55ZM49.75-0.7L49.75-0.7Q52.45-0.7 54.1-2.08 55.75-3.45 56.5-5.78 57.25-8.1 57.25-11L57.25-11Q57.25-14 56.5-16.35 55.75-18.7 54.1-20.08 52.45-21.45 49.75-21.45L49.75-21.45Q47.05-21.45 45.4-20.08 43.75-18.7 43-16.35 42.25-14 42.25-11L42.25-11Q42.25-8.1 43-5.78 43.75-3.45 45.4-2.08 47.05-0.7 49.75-0.7ZM75.9 0.55L75.9 0.55Q73.05 0.55 70.75-1 68.45-2.55 67.09-5.23 65.75-7.9 65.75-11.15L65.75-11.15Q65.75-14.4 67.09-17 68.45-19.6 70.8-21.15 73.15-22.7 76.09-22.7L76.09-22.7Q78.2-22.7 79.95-21.83 81.7-20.95 82.84-19.85L82.84-19.85 82.84-30.45Q82.84-33.05 81.77-33.77 80.7-34.5 78.8-34.5L78.8-34.5 78.45-34.5 78.45-35.65Q80.5-35.65 82.4-35.77 84.3-35.9 86.34-36.25L86.34-36.25 86.34-5.45Q86.34-2.65 87.42-1.9 88.5-1.15 90.5-1.15L90.5-1.15 90.5 0 88.45 0Q87.34 0 86.3 0.08 85.25 0.15 83.95 0.4L83.95 0.4 83.3-3.1Q81.95-1.5 80.07-0.48 78.2 0.55 75.9 0.55ZM69.75-11.15L69.75-11.15Q69.75-8.25 70.47-5.95 71.2-3.65 72.67-2.3 74.15-0.95 76.4-0.95L76.4-0.95Q78.55-0.95 80.12-1.93 81.7-2.9 82.84-4.3L82.84-4.3 82.84-17.8Q82-19.1 80.3-20.15 78.59-21.2 76.55-21.2L76.55-21.2Q74.25-21.2 72.75-19.88 71.25-18.55 70.5-16.28 69.75-14 69.75-11.15ZM103.94 0.55L103.94 0.55Q100.64 0.55 98.19-0.88 95.74-2.3 94.37-4.83 92.99-7.35 92.99-10.6L92.99-10.6Q92.99-14.1 94.49-16.82 95.99-19.55 98.52-21.13 101.04-22.7 104.09-22.7L104.09-22.7Q107.94-22.7 110.12-20.25 112.29-17.8 112.29-13.8L112.29-13.8Q112.29-13.2 112.24-12.8 112.19-12.4 112.14-12.25L112.14-12.25 97.04-12.25Q96.99-11.55 96.99-10.85L96.99-10.85Q96.99-8.2 97.84-5.93 98.69-3.65 100.42-2.3 102.14-0.95 104.64-0.95L104.64-0.95Q106.99-0.95 108.82-2.27 110.64-3.6 111.64-6.2L111.64-6.2 112.84-5.75Q110.74 0.55 103.94 0.55ZM104.09-21.45L104.09-21.45Q100.99-21.45 99.27-19.25 97.54-17.05 97.14-13.4L97.14-13.4 103.49-13.4Q105.74-13.4 106.92-13.93 108.09-14.45 108.52-15.23 108.94-16 108.94-16.75L108.94-16.75Q108.94-18.95 107.44-20.2 105.94-21.45 104.09-21.45ZM125.99 0L124.09 0 117.94-16.95Q117.34-18.6 116.54-19.55 115.74-20.5 114.49-20.6L114.49-20.6 113.94-20.65 113.94-21.8 119.24-21.65 124.14-21.8 124.14-20.65 123.64-20.6Q121.14-20.4 121.14-18.7L121.14-18.7Q121.14-18.4 121.19-18.05 121.24-17.7 121.39-17.3L121.39-17.3 126.24-3.85 131.79-16.4Q132.04-17 132.22-17.53 132.39-18.05 132.39-18.45L132.39-18.45Q132.39-20.5 130.34-20.6L130.34-20.6 128.79-20.65 128.79-21.8 130.54-21.8Q132.39-21.8 133.24-20.3L133.24-20.3Q133.59-21.15 134.62-21.48 135.64-21.8 136.49-21.8L136.49-21.8 138.79-21.8 138.79-20.65 138.04-20.6Q137.14-20.55 136.74-20.08 136.34-19.6 136.34-18.9L136.34-18.9Q136.34-18.25 136.74-17.2L136.74-17.2 141.94-3.9 147.14-17.1Q147.24-17.45 147.42-17.95 147.59-18.45 147.59-18.75L147.59-18.75Q147.59-20.25 145.14-20.55L145.14-20.55 144.34-20.65 144.34-21.8 149.04-21.65 152.99-21.8 152.99-20.65 152.19-20.55Q150.44-20.35 149.72-19.3 148.99-18.25 148.44-16.95L148.44-16.95 141.74 0 139.84 0 133.34-16.75 125.99 0ZM160.24 0.55L160.24 0.55Q157.84 0.55 156.26-0.68 154.69-1.9 154.69-4.1L154.69-4.1Q154.69-6.3 156.64-8.03 158.59-9.75 161.19-11.15L161.19-11.15Q163.14-12.25 165.09-13.05 167.04-13.85 168.44-14.4L168.44-14.4 168.44-16Q168.44-18.75 167.41-20.1 166.39-21.45 163.54-21.45L163.54-21.45Q162.19-21.45 160.89-21.1 159.59-20.75 159.59-19.8L159.59-19.8Q159.59-19.6 159.66-19.35 159.74-19.1 159.79-18.85L159.79-18.85Q160.04-18.2 160.04-17.5L160.04-17.5Q160.04-16.55 159.36-16.03 158.69-15.5 157.74-15.5L157.74-15.5Q156.84-15.5 156.24-16.18 155.64-16.85 155.64-17.8L155.64-17.8Q155.64-19.6 157.01-20.68 158.39-21.75 160.39-22.23 162.39-22.7 164.24-22.7L164.24-22.7Q168.24-22.7 170.09-20.85 171.94-19 171.94-14.8L171.94-14.8 171.94-5.8Q171.94-3.6 172.26-2.4 172.59-1.2 173.74-1.2L173.74-1.2Q174.49-1.2 175.04-1.75 175.59-2.3 175.79-2.95L175.79-2.95 176.69-2.6Q176.29-1.15 175.26-0.3 174.24 0.55 172.44 0.55L172.44 0.55Q170.24 0.55 169.41-0.73 168.59-2 168.49-4.1L168.49-4.1Q167.09-1.85 164.94-0.65 162.79 0.55 160.24 0.55ZM158.59-4.35L158.59-4.35Q158.59-2.95 159.41-2.13 160.24-1.3 161.84-1.3L161.84-1.3Q163.29-1.3 164.61-2 165.94-2.7 166.94-3.78 167.94-4.85 168.44-6.1L168.44-6.1 168.44-13.4Q166.79-12.7 165.06-11.78 163.34-10.85 161.86-9.7 160.39-8.55 159.49-7.23 158.59-5.9 158.59-4.35ZM189.53 0L187.63 0 179.49-18Q179.03-19 178.38-19.7 177.74-20.4 176.44-20.55L176.44-20.55 175.53-20.65 175.53-21.8 180.69-21.65 185.78-21.8 185.78-20.65 184.99-20.55Q183.88-20.4 183.44-20.03 182.99-19.65 182.99-19L182.99-19Q182.99-18.45 183.38-17.5L183.38-17.5 189.69-3.6 195.53-17.3Q195.99-18.3 195.99-18.95L195.99-18.95Q195.99-20.25 193.69-20.55L193.69-20.55 192.84-20.65 192.84-21.8 197.34-21.65 201.53-21.8 201.53-20.65 200.38-20.5Q198.99-20.3 198.24-19.43 197.49-18.55 196.74-16.8L196.74-16.8 189.53 0ZM213.23 0.55L213.23 0.55Q209.93 0.55 207.48-0.88 205.03-2.3 203.66-4.83 202.28-7.35 202.28-10.6L202.28-10.6Q202.28-14.1 203.78-16.82 205.28-19.55 207.81-21.13 210.33-22.7 213.38-22.7L213.38-22.7Q217.23-22.7 219.41-20.25 221.58-17.8 221.58-13.8L221.58-13.8Q221.58-13.2 221.53-12.8 221.48-12.4 221.43-12.25L221.43-12.25 206.33-12.25Q206.28-11.55 206.28-10.85L206.28-10.85Q206.28-8.2 207.13-5.93 207.98-3.65 209.71-2.3 211.43-0.95 213.93-0.95L213.93-0.95Q216.28-0.95 218.11-2.27 219.93-3.6 220.93-6.2L220.93-6.2 222.13-5.75Q220.03 0.55 213.23 0.55ZM213.38-21.45L213.38-21.45Q210.28-21.45 208.56-19.25 206.83-17.05 206.43-13.4L206.43-13.4 212.78-13.4Q215.03-13.4 216.21-13.93 217.38-14.45 217.81-15.23 218.23-16 218.23-16.75L218.23-16.75Q218.23-18.95 216.73-20.2 215.23-21.45 213.38-21.45ZM256.58 0.55L256.58 0.55Q251.48 0.55 247.8-1.8 244.13-4.15 242.15-8.28 240.18-12.4 240.18-17.75L240.18-17.75Q240.18-21.75 241.48-25.1 242.78-28.45 245.08-30.95 247.38-33.45 250.4-34.83 253.43-36.2 256.88-36.2L256.88-36.2Q259.93-36.2 261.9-35.52 263.88-34.85 264.88-34.35L264.88-34.35Q265.53-34.05 266.08-33.83 266.63-33.6 266.83-33.6L266.83-33.6Q267.38-33.6 267.73-34.02 268.08-34.45 268.18-35.5L268.18-35.5 269.43-35.5 269.33-29.65 269.43-23.8 268.18-23.8Q267.43-29 264.58-31.85 261.73-34.7 257.03-34.7L257.03-34.7Q253.73-34.7 251.48-33.38 249.23-32.05 247.88-29.73 246.53-27.4 245.9-24.33 245.28-21.25 245.28-17.75L245.28-17.75Q245.28-12.5 246.4-8.75 247.53-5 250.1-2.98 252.68-0.95 257.03-0.95L257.03-0.95Q260.28-0.95 262.68-2.45 265.08-3.95 266.55-6.45 268.03-8.95 268.33-11.95L268.33-11.95 269.53-11.95 269.43-5.85 269.58 0 268.38 0 268.23-0.55Q268.03-1.2 267.75-1.78 267.48-2.35 266.83-2.35L266.83-2.35Q266.48-2.35 266-2.15 265.53-1.95 264.93-1.65L264.93-1.65Q263.63-1 261.53-0.23 259.43 0.55 256.58 0.55ZM280.63 0L274.47 0.15 274.47-1 275.27-1.1Q276.72-1.3 277.5-1.58 278.27-1.85 278.57-2.83 278.88-3.8 278.88-6.05L278.88-6.05 278.88-16.45Q278.88-18.4 278.35-19.3 277.82-20.2 276.82-20.43 275.82-20.65 274.47-20.65L274.47-20.65 274.47-21.8Q276.52-21.8 278.43-21.95 280.32-22.1 282.38-22.4L282.38-22.4 281.82-16.65 282.02-16.65Q283.13-20 284.72-21.35 286.32-22.7 288.18-22.7L288.18-22.7Q290.27-22.7 290.97-21.68 291.68-20.65 291.68-19.7L291.68-19.7Q291.68-18.6 291.02-17.9 290.38-17.2 289.27-17.2L289.27-17.2Q288.22-17.2 287.68-17.7 287.13-18.2 287.13-18.85L287.13-18.85Q287.13-19.35 287.25-19.8 287.38-20.25 287.38-20.5L287.38-20.5Q287.38-21 286.68-21L286.68-21Q285.97-21 285.2-20.35 284.43-19.7 283.88-18.55L283.88-18.55Q283.43-17.6 283.02-16.45 282.63-15.3 282.38-13.95L282.38-13.95 282.38-6.05Q282.38-3.8 282.68-2.83 282.97-1.85 283.75-1.58 284.52-1.3 285.97-1.1L285.97-1.1 286.77-1 286.77 0.15 280.63 0ZM305.37 0.55L305.37 0.55Q302.07 0.55 299.62-0.88 297.17-2.3 295.8-4.83 294.42-7.35 294.42-10.6L294.42-10.6Q294.42-14.1 295.92-16.82 297.42-19.55 299.95-21.13 302.47-22.7 305.52-22.7L305.52-22.7Q309.37-22.7 311.55-20.25 313.72-17.8 313.72-13.8L313.72-13.8Q313.72-13.2 313.67-12.8 313.62-12.4 313.57-12.25L313.57-12.25 298.47-12.25Q298.42-11.55 298.42-10.85L298.42-10.85Q298.42-8.2 299.27-5.93 300.12-3.65 301.85-2.3 303.57-0.95 306.07-0.95L306.07-0.95Q308.42-0.95 310.25-2.27 312.07-3.6 313.07-6.2L313.07-6.2 314.27-5.75Q312.17 0.55 305.37 0.55ZM305.52-21.45L305.52-21.45Q302.42-21.45 300.7-19.25 298.97-17.05 298.57-13.4L298.57-13.4 304.92-13.4Q307.17-13.4 308.35-13.93 309.52-14.45 309.95-15.23 310.37-16 310.37-16.75L310.37-16.75Q310.37-18.95 308.87-20.2 307.37-21.45 305.52-21.45ZM324.07 0.55L324.07 0.55Q321.67 0.55 320.1-0.68 318.52-1.9 318.52-4.1L318.52-4.1Q318.52-6.3 320.47-8.03 322.42-9.75 325.02-11.15L325.02-11.15Q326.97-12.25 328.92-13.05 330.87-13.85 332.27-14.4L332.27-14.4 332.27-16Q332.27-18.75 331.25-20.1 330.22-21.45 327.37-21.45L327.37-21.45Q326.02-21.45 324.72-21.1 323.42-20.75 323.42-19.8L323.42-19.8Q323.42-19.6 323.5-19.35 323.57-19.1 323.62-18.85L323.62-18.85Q323.87-18.2 323.87-17.5L323.87-17.5Q323.87-16.55 323.2-16.03 322.52-15.5 321.57-15.5L321.57-15.5Q320.67-15.5 320.07-16.18 319.47-16.85 319.47-17.8L319.47-17.8Q319.47-19.6 320.85-20.68 322.22-21.75 324.22-22.23 326.22-22.7 328.07-22.7L328.07-22.7Q332.07-22.7 333.92-20.85 335.77-19 335.77-14.8L335.77-14.8 335.77-5.8Q335.77-3.6 336.1-2.4 336.42-1.2 337.57-1.2L337.57-1.2Q338.32-1.2 338.87-1.75 339.42-2.3 339.62-2.95L339.62-2.95 340.52-2.6Q340.12-1.15 339.1-0.3 338.07 0.55 336.27 0.55L336.27 0.55Q334.07 0.55 333.25-0.73 332.42-2 332.32-4.1L332.32-4.1Q330.92-1.85 328.77-0.65 326.62 0.55 324.07 0.55ZM322.42-4.35L322.42-4.35Q322.42-2.95 323.25-2.13 324.07-1.3 325.67-1.3L325.67-1.3Q327.12-1.3 328.45-2 329.77-2.7 330.77-3.78 331.77-4.85 332.27-6.1L332.27-6.1 332.27-13.4Q330.62-12.7 328.9-11.78 327.17-10.85 325.7-9.7 324.22-8.55 323.32-7.23 322.42-5.9 322.42-4.35ZM351.22 0.55L351.22 0.55Q348.77 0.55 347.24-0.93 345.72-2.4 345.72-5.75L345.72-5.75 345.72-20.55 342.02-20.55 342.02-21.8 343.37-21.9Q345.42-22.05 346.49-23.58 347.57-25.1 347.92-27.85L347.92-27.85 349.22-27.85 349.22-21.8 355.62-21.8 355.62-20.55 349.22-20.55 349.22-5.55Q349.22-1.15 352.32-1.15L352.32-1.15Q353.62-1.15 354.42-2.02 355.22-2.9 355.87-4.2L355.87-4.2 356.97-3.65Q356.67-2.9 356.24-2.27 355.82-1.65 355.42-1.2L355.42-1.2Q354.57-0.25 353.49 0.15 352.42 0.55 351.22 0.55ZM365.02 0L358.87 0.15 358.87-1 359.67-1.1Q361.12-1.3 361.89-1.58 362.67-1.85 362.97-2.83 363.27-3.8 363.27-6.05L363.27-6.05 363.27-16.6Q363.27-19.2 362.19-19.93 361.12-20.65 359.22-20.65L359.22-20.65 358.87-20.65 358.87-21.8Q360.92-21.8 362.82-21.93 364.72-22.05 366.77-22.4L366.77-22.4 366.77-6.05Q366.77-3.8 367.07-2.83 367.37-1.85 368.14-1.58 368.92-1.3 370.37-1.1L370.37-1.1 371.17-1 371.17 0.15 365.02 0ZM364.42-28.25L364.42-28.25Q363.12-28.25 362.37-29.15 361.62-30.05 361.62-31.3L361.62-31.3Q361.62-32.6 362.37-33.48 363.12-34.35 364.42-34.35L364.42-34.35Q365.87-34.35 366.54-33.48 367.22-32.6 367.22-31.3L367.22-31.3Q367.22-30.05 366.54-29.15 365.87-28.25 364.42-28.25ZM385.41 0.55L385.41 0.55Q382.21 0.55 379.59-1 376.96-2.55 375.44-5.18 373.91-7.8 373.91-11L373.91-11Q373.91-14.3 375.44-16.95 376.96-19.6 379.59-21.15 382.21-22.7 385.41-22.7L385.41-22.7Q388.66-22.7 391.26-21.15 393.86-19.6 395.39-16.95 396.91-14.3 396.91-11L396.91-11Q396.91-7.8 395.39-5.18 393.86-2.55 391.26-1 388.66 0.55 385.41 0.55ZM385.41-0.7L385.41-0.7Q388.11-0.7 389.76-2.08 391.41-3.45 392.16-5.78 392.91-8.1 392.91-11L392.91-11Q392.91-14 392.16-16.35 391.41-18.7 389.76-20.08 388.11-21.45 385.41-21.45L385.41-21.45Q382.71-21.45 381.06-20.08 379.41-18.7 378.66-16.35 377.91-14 377.91-11L377.91-11Q377.91-8.1 378.66-5.78 379.41-3.45 381.06-2.08 382.71-0.7 385.41-0.7ZM406.71 0L400.56 0.15 400.56-1 401.36-1.1Q402.81-1.3 403.59-1.58 404.36-1.85 404.66-2.83 404.96-3.8 404.96-6.05L404.96-6.05 404.96-16.6Q404.96-19.2 403.89-19.93 402.81-20.65 400.91-20.65L400.91-20.65 400.56-20.65 400.56-21.8Q402.61-21.8 404.51-21.93 406.41-22.05 408.46-22.4L408.46-22.4 408.46-18.35Q409.61-20.05 411.71-21.38 413.81-22.7 416.61-22.7L416.61-22.7Q420.01-22.7 421.99-20.98 423.96-19.25 423.96-16.05L423.96-16.05 423.96-6.05Q423.96-3.8 424.26-2.83 424.56-1.85 425.34-1.58 426.11-1.3 427.56-1.1L427.56-1.1 428.36-1 428.36 0.15 422.21 0 416.06 0.15 416.06-1 416.86-1.1Q418.31-1.3 419.09-1.58 419.86-1.85 420.16-2.83 420.46-3.8 420.46-6.05L420.46-6.05 420.46-16.05Q420.46-18.55 419.16-19.88 417.86-21.2 415.51-21.2L415.51-21.2Q413.71-21.2 412.26-20.38 410.81-19.55 409.86-18.35 408.91-17.15 408.46-16.05L408.46-16.05 408.46-6.05Q408.46-3.8 408.76-2.83 409.06-1.85 409.84-1.58 410.61-1.3 412.06-1.1L412.06-1.1 412.86-1 412.86 0.15 406.71 0ZM439.51 0.55L439.51 0.55Q437.61 0.55 436.28 0.13 434.96-0.3 434.21-0.65L434.21-0.65Q433.41-1.05 433.21-1.05L433.21-1.05Q433.01-1.05 432.88-0.88 432.76-0.7 432.61 0L432.61 0 431.46 0 431.66-3.3 431.81-7.55 432.91-7.55 432.96-6.7Q433.06-5.3 433.88-3.9 434.71-2.5 436.16-1.55 437.61-0.6 439.51-0.6L439.51-0.6Q441.56-0.6 442.81-1.65 444.06-2.7 444.06-4.55L444.06-4.55Q444.06-6.15 442.78-7.25 441.51-8.35 439.26-9.2L439.26-9.2 437.46-9.9Q434.86-10.9 433.53-12.4 432.21-13.9 432.21-16.25L432.21-16.25Q432.21-18.25 433.13-19.68 434.06-21.1 435.58-21.9 437.11-22.7 438.86-22.7L438.86-22.7Q440.11-22.7 440.98-22.4 441.86-22.1 442.46-21.8L442.46-21.8Q442.96-21.55 443.31-21.55L443.31-21.55Q443.81-21.55 444.11-22.6L444.11-22.6 445.21-22.55 445.01-19.3 445.01-15.8 443.86-15.8Q443.51-18.15 442.26-19.88 441.01-21.6 438.66-21.6L438.66-21.6Q437.01-21.6 435.88-20.55 434.76-19.5 434.76-17.9L434.76-17.9Q434.76-16.35 435.93-15.33 437.11-14.3 439.16-13.5L439.16-13.5 441.11-12.75Q444.16-11.6 445.33-9.98 446.51-8.35 446.51-6.1L446.51-6.1Q446.51-3.45 444.71-1.45 442.91 0.55 439.51 0.55Z" opacity="1" transform="matrix(1,0,0,1,0,0)" fill="#ffffff" class="wordmark-text-0" data-fill-palette-color="primary" id="text-0"></path></svg></g></svg></g></svg></g></svg></g><g transform="matrix(1,0,0,1,71.83939764398679,0)"><svg viewBox="0 0 48.32120471202642 22.019752395986018" height="22.019752395986018" width="48.32120471202642"><g><svg xmlns="http://www.w3.org/2000/svg" xmlns:xlink="http://www.w3.org/1999/xlink" version="1.1" x="0" y="0" viewBox="5 29.49391886595174 90 41.01258914071542" enable-background="new 0 0 100 100" xml:space="preserve" height="22.019752395986018" width="48.32120471202642" class="icon-icon-0" data-fill-palette-color="accent" id="icon-0"><g fill="#b7feae" data-fill-palette-color="accent"><path d="M23.943 30.807L5 50.001 23.942 69.193A4.386 4.386 0 0 0 30.2 69.195 4.52 4.52 0 0 0 30.202 62.857L18.193 50.695 14.569 52.984 30.203 37.143A4.5 4.5 0 0 0 31.498 33.975 4.5 4.5 0 0 0 30.201 30.805 4.387 4.387 0 0 0 23.943 30.807" fill="#ffffff" data-fill-palette-color="accent"></path><path d="M76.057 30.808L95 50.001 76.058 69.193A4.386 4.386 0 0 1 69.8 69.195 4.52 4.52 0 0 1 69.798 62.857L81.807 50.696 85.431 52.985 69.796 37.144A4.5 4.5 0 0 1 68.501 33.976 4.5 4.5 0 0 1 69.798 30.806 4.386 4.386 0 0 1 76.057 30.808" fill="#ffffff" data-fill-palette-color="accent"></path><path d="M60.899 32.352A4.5 4.5 0 0 0 58.533 29.876 4.386 4.386 0 0 0 52.708 32.164L38.888 64.226A4.5 4.5 0 0 0 38.84 67.648 4.5 4.5 0 0 0 41.206 70.124 4.386 4.386 0 0 0 47.031 67.836L60.851 35.774A4.5 4.5 0 0 0 60.899 32.352" fill="#ffffff" data-fill-palette-color="accent"></path></g></svg></g></svg></g><g></g></svg></g></svg></g></svg></g></svg></g><defs></defs></svg><rect width="320" height="360" fill="none" stroke="none" visibility="hidden"></rect></g></svg></g></svg>